<svg width="127" height="35" viewBox="0 0 127 35" fill="none" xmlns="http://www.w3.org/2000/svg">
<g clip-path="url(#clip0_2001_12620)">
<mask id="mask0_2001_12620" style="mask-type:luminance" maskUnits="userSpaceOnUse" x="0" y="0" width="127" height="35">
<path d="M127 0.00292969H0V34.5608H127V0.00292969Z" fill="white"/>
</mask>
<g mask="url(#mask0_2001_12620)">
<path d="M122.829 20.6819L116.514 21.5791C114.225 21.9033 112.656 22.4738 111.808 23.2902C111.061 24.0059 110.688 25.1228 110.686 26.6408C110.671 27.2262 110.783 27.8079 111.014 28.3458C111.244 28.8835 111.589 29.3643 112.023 29.7549C112.919 30.5746 114.134 30.9855 115.689 30.9855C117.79 30.9855 119.508 30.2523 120.84 28.786C122.172 27.3196 122.836 25.4877 122.829 23.2902V20.6819ZM126.998 33.9252H122.829V29.8324H122.727C120.911 32.9911 118.239 34.5679 114.71 34.5627C112.069 34.5627 110.002 33.8302 108.525 32.3633C107.119 30.9861 106.415 29.189 106.413 26.9722C106.413 22.0868 109.28 19.2323 115.012 18.4455L122.829 17.3449C122.829 12.9123 121.04 10.6967 117.462 10.698C114.317 10.698 111.483 11.7619 108.957 13.8897V9.59148C109.757 9.01013 110.991 8.46755 112.651 7.95207C114.322 7.42191 116.063 7.13989 117.817 7.11492C123.943 7.11492 127.003 10.3776 126.998 16.903V33.9252ZM102.983 33.6713C102.001 34.2314 100.689 34.5104 99.0643 34.5104C94.5182 34.5104 92.2443 31.9395 92.2443 26.7977V11.2948H92.2754V7.75053H92.2443V1.36529C93.5644 0.936378 94.9537 0.48421 96.4137 0.00878906V7.76022V11.3123V26.0807C96.4137 27.8345 96.7092 29.0824 97.3088 29.8247C97.9092 30.5669 98.8889 30.9331 100.278 30.9331C101.245 30.9553 102.193 30.6615 102.979 30.0959L102.983 33.6713ZM85.4923 26.9198C85.5121 27.9331 85.3082 28.9383 84.8952 29.863C84.4822 30.7878 83.8705 31.6092 83.104 32.2683C81.3496 33.7928 78.9639 34.5576 75.9465 34.5627C73.4719 34.5627 71.3183 34.0363 69.4855 32.9834V28.4817C71.5266 30.1483 73.7761 30.9855 76.259 30.9855C79.56 30.9855 81.2191 29.7626 81.2191 27.3287C81.2314 26.8526 81.14 26.3794 80.9509 25.9426C80.762 25.5057 80.4802 25.1157 80.1253 24.7998C79.396 24.137 77.9703 23.3329 75.852 22.4008C73.6616 21.4434 72.1118 20.4545 71.2025 19.4339C70.099 18.2207 69.5434 16.6511 69.5434 14.7055C69.5434 12.5235 70.3999 10.7116 72.1131 9.26983C73.8263 7.82805 76.0352 7.10975 78.74 7.11492C80.665 7.08383 82.5709 7.50172 84.3078 8.33576V12.5584C82.5926 11.3104 80.52 10.6561 78.4025 10.6941C77.0037 10.6941 75.8944 11.0332 75.0668 11.7134C74.6679 12.0241 74.347 12.4243 74.1299 12.882C73.9128 13.3396 73.8055 13.8421 73.8166 14.349C73.8166 15.5117 74.1639 16.4089 74.8584 17.0619C75.4931 17.6626 76.7877 18.3874 78.7844 19.2343C80.9992 20.1761 82.6062 21.1353 83.5882 22.1217C84.8654 23.3774 85.4923 24.982 85.4923 26.9198ZM65.1601 26.9198C65.1794 27.9333 64.9752 28.9385 64.5619 29.8632C64.1486 30.788 63.5365 31.6093 62.7698 32.2683C61.0168 33.7928 58.6316 34.5576 55.6143 34.5627C53.1371 34.5627 50.9827 34.0363 49.1512 32.9834V28.4817C51.1924 30.1483 53.4419 30.9855 55.9267 30.9855C59.2271 30.9855 60.8797 29.7665 60.8849 27.3287C60.8973 26.8526 60.8057 26.3794 60.6168 25.9426C60.4278 25.5057 60.146 25.1157 59.7911 24.7998C59.0618 24.137 57.638 23.3329 55.5177 22.4008C53.3313 21.4395 51.7795 20.4506 50.8625 19.4339C49.7589 18.2207 49.2033 16.6511 49.2033 14.7055C49.2033 12.5235 50.0606 10.7116 51.7751 9.26983C53.4895 7.82805 55.6953 7.10975 58.3924 7.11492C60.3173 7.08383 62.2232 7.50172 63.9601 8.33576V12.5584C62.2487 11.313 60.1812 10.6588 58.0682 10.6941C56.6696 10.6941 55.5603 11.0332 54.7326 11.7134C54.3336 12.0241 54.0128 12.4243 53.7956 12.882C53.5785 13.3396 53.4712 13.8421 53.4824 14.349C53.4824 15.5117 53.8297 16.4089 54.5242 17.0619C55.159 17.6626 56.4535 18.3874 58.4502 19.2343C60.665 20.1761 62.2721 21.1353 63.254 22.1217C64.5312 23.3813 65.1684 24.9807 65.1659 26.9198H65.1601ZM41.2722 18.3331C41.2375 15.9438 40.6722 14.0932 39.5861 12.7599C38.4575 11.3801 36.8408 10.6941 34.7533 10.6941C33.8171 10.6757 32.8873 10.854 32.0235 11.2173C31.1598 11.5807 30.3811 12.1213 29.7374 12.8045C28.356 14.2094 27.5129 16.0503 27.1927 18.3351L41.2722 18.3331ZM45.5455 21.8853H27.1483C27.2177 24.8166 27.9965 27.0677 29.4846 28.6387C30.9778 30.2006 33.0363 30.9855 35.6427 30.9855C38.5791 30.9855 41.269 30.0314 43.7127 28.1232V32.0319C41.4362 33.7242 38.4138 34.5679 34.6453 34.5627C31.0839 34.5627 28.2608 33.4401 26.1759 31.1947C23.9367 28.8034 22.8165 25.3863 22.8152 20.9435C22.8152 16.7293 24.0281 13.3296 26.4538 10.7445C28.7206 8.31833 31.5103 7.11492 34.8015 7.11492C38.3283 7.11492 41.0292 8.2912 42.887 10.6651C44.6555 12.8807 45.5417 15.8876 45.5455 19.6858V21.8853ZM21.5747 8.95009L6.13113 30.375H21.4011V33.9252H0V32.6249L15.4166 11.3085H1.45079V7.75053H21.5747V8.95009Z" fill="white"/>
<path fill-rule="evenodd" clip-rule="evenodd" d="M89.334 5.95898L104.012 10.4858L89.334 15.6017V5.95898Z" fill="#92C841"/>
</g>
</g>
<defs>
<clipPath id="clip0_2001_12620">
<rect width="127" height="34.5578" fill="white"/>
</clipPath>
</defs>
</svg>
